<?xml version="1.0" encoding="UTF-8" standalone="no"?>
<!-- Created with Inkscape (http://www.inkscape.org/) -->

<svg
   width="100mm"
   height="100mm"
   viewBox="0 0 100 100"
   version="1.1"
   id="svg1"
   xmlns="http://www.w3.org/2000/svg"
   xmlns:svg="http://www.w3.org/2000/svg">
  <defs
     id="defs1" />
  <g
     id="layer1">
    <path
       id="path6"
       style="opacity:1;vector-effect:none;fill:#2c57a4;stroke-width:0.222072;paint-order:markers fill stroke;stop-color:#000000;stop-opacity:1"
       d="M 43.836813,3.1721084 A 12.5,12.5 0 0 0 31.336801,15.672118 12.5,12.5 0 0 0 37.25737,26.2446 H 13.836577 V 43.994938 A 12.5,12.5 0 0 1 15.737236,43.744824 12.5,12.5 0 0 1 28.237248,56.244319 12.5,12.5 0 0 1 15.737236,68.744331 12.5,12.5 0 0 1 13.836577,68.494217 V 86.244555 H 31.643759 A 12.499999,12.499999 0 0 1 31.336801,83.913431 12.499999,12.499999 0 0 1 43.836813,71.413419 12.499999,12.499999 0 0 1 56.336825,83.913431 12.499999,12.499999 0 0 1 56.02935,86.244555 H 73.836532 V 63.919303 A 12.5,12.5 0 0 0 84.24675,69.628515 12.5,12.5 0 0 0 96.746762,57.128503 12.5,12.5 0 0 0 84.24675,44.628491 12.5,12.5 0 0 0 73.836532,50.337703 V 26.2446 H 50.497388 A 12.5,12.5 0 0 0 56.336825,15.672118 12.5,12.5 0 0 0 43.836813,3.1721084 Z M 39.243812,27.254357 a 12.5,12.5 0 0 0 0.181384,0.06925 12.5,12.5 0 0 1 -0.181384,-0.06925 z m 9.24388,0.0088 a 12.5,12.5 0 0 1 -0.185518,0.07028 12.5,12.5 0 0 0 0.185518,-0.07028 z m -7.055383,0.648023 a 12.5,12.5 0 0 0 0.186035,0.03876 12.5,12.5 0 0 1 -0.186035,-0.03876 z m 4.841048,0.0093 a 12.5,12.5 0 0 1 -0.19327,0.03979 12.5,12.5 0 0 0 0.19327,-0.03979 z M 72.74771,52.376351 a 12.5,12.5 0 0 0 -0.07493,0.187586 12.5,12.5 0 0 1 0.07493,-0.187586 z m -0.712618,2.260844 a 12.5,12.5 0 0 0 -0.04186,0.190169 12.5,12.5 0 0 1 0.04186,-0.190169 z m -0.04186,4.792472 a 12.5,12.5 0 0 0 0.04186,0.19017 12.5,12.5 0 0 1 -0.04186,-0.19017 z m 0.679545,2.263428 a 12.5,12.5 0 0 0 0.07493,0.187586 12.5,12.5 0 0 1 -0.07493,-0.187586 z" />
  </g>
</svg>
